<svg width="0" height="0" xmlns="http://www.w3.org/2000/svg">
  <symbol id="saladsIcon" viewBox="0 0 222 222" fill="none">
    <path d="M1 110.996c9.47 44.237 28.68 75.061 64.74 97.022 30.252 18.411 63.706 16.367 90.666-.629 40.442-25.399 58.64-75.915 64.594-96.393" stroke="#87E80C"/>
    <path d="M213.703 88.463c24.04 18.804-17.738 34.688-37.812 40.024M10.12 112.895c-4.212-3.146-6.818-6.134-8.121-8.931-4.887-10.582 8.874-18.658 25.669-24.241M33.642 124.554a111.729 111.729 0 0 1-17.064-7.515" stroke="#C0C0C2"/>
    <path d="M175.931 128.453c-40.554 10.717-87.893 10.919-128.525.303M24.219 101.234c2.561-1.056 8.65-3.516 11.436-4.494M11.492 109.3a57.743 57.743 0 0 1 8.448-5.706M30.594 163.344a96.604 96.604 0 0 0 19.524 22.905M17.656 134.014c1.506 6.83 5.067 15.727 10.19 24.714M181.125 138.147c14.02-3.707 24.961-9.526 29.848-15.098M164.148 141.315a124.09 124.09 0 0 0 11.785-1.92M174.8 180.406c-5.774 8.032-20.872 20.389-36.015 26.005-10.987 4.067-21.209 6.74-32.847 5.392M180 174.174c7.077-8.246 10.11-11.796 14.154-19.547" stroke="#C0C0C2"/>
    <path d="M132.547 58.47a78.418 78.418 0 0 1 27.309-10.01M113.016 74.151c2.314-3.92 7.324-8.211 13.48-12.143" stroke="#87E80C" />
    <path d="m24.273 56.672 24.714 67.883M62.25 44.865l16.772 85.148M28.758 45.112l20.21-5.448M22.914 52.292c.112-3.37 2.247-5.73 7.673-7.673M54.82 38.115c1.921-.45 6.516 1.124 7.437 6.74" stroke="#C0C0C2"/>
    <path d="m15.703 20.613 12.784 24.85M15.703 14.771l20.58 23.265M33.954 29.58 32.156 5.36M45.715 35.891 32.156 5.36M54.81 35.441 50.43 1M42.344 28.32 50.42 1" stroke="#87E80C"/>
    <path d="M31.555 68.142 43.013 64.2M39.227 83.07l18.39-5.841M48.422 103.593l8.167-2.37M72.894 109.301l-11.683 3.595M148.828 128.351l16.356-67.748" stroke="#C0C0C2"/>
    <path d="M165.234 55.886 171.975 1M192.871 11.852 171.977 1M185.906 68.141l6.965-56.29M203.435 1l-12.357 25.4M220.056 22.186l-10.829 16.906M186.891 61.503l34.094-28.466M220.983 60.603l-30.421 46.888" stroke="#87E80C"/>
    <path d="m183.656 123.062 4.561-11.964M186.922 72.072l10.593 24.636" stroke="#C0C0C2"/>
    <path d="m203.43 1 16.626 21.187M220.984 60.605V33.037" stroke="#87E80C"/>
    <path d="m207.125 62.694 11.178-13.458M191.156 81.914l10.099-12.166M171.087 89.293l-1.056 8.65M178.198 30.69l-6.268 51.672M181.137 6.426l-2.168 17.816" stroke="#C0C0C2"/>
    <path d="M104.359 19.298a15.133 15.133 0 0 1 6.639-1.83c11.459-1.236 16.851 3.47 21.446 5.84 3.37 1.73 9.054 4.292 13.705-2.684 4.055-6.1 14.693-7.212 20.445-5.291M65.813 47.686c1.437-9.66 4.976-17.513 10.2-18.535 3.628-.708 9.75 1.527 17.108-.708 1.663-.506 2.146-2.438 5.617-5.258M120.531 34.992c-8.088 14.379-16.401 77.353-11.907 97.539M88.078 44.865a83.64 83.64 0 0 1 21.344 15.727" stroke="#87E80C"/>
    <path d="M70.648 40.8c4.382-.306 8.776.4 12.84 2.067" stroke="#C0C0C2"/>
    <path d="M77.766 95.506c9.368 3.291 19.243 10.481 26.758 18.041M127.68 112.052a87.17 87.17 0 0 1 20.692-5.616M110.977 124.206c1.786-3.021 2.943-4.111 6.29-6.481" stroke="#87E80C"/>
    <path d="M198.461 98.965a21.588 21.588 0 0 1 10.11 7.481" stroke="#C0C0C2"/>
  </symbol>

  <symbol id="signatureRollsIcon" viewBox="0 0 167 167" fill="none">
    <path d="M129.067 82.48c-1.919 5.245-12.82 9.335-18.965 11.027M39.23 86.614a10.329 10.329 0 0 1-3.072-3.208 8.253 8.253 0 0 1-.455-.842M49.255 91.782c-2.526-.934-6.979-2.584-10.06-5.169M110.108 93.549a108.313 108.313 0 0 1-54.944.134" stroke="#C0C0C2"/>
    <path d="M34.74 109.543a105.006 105.006 0 0 1-7.576-2.602M121.148 112.135c-26.82 6.398-56.4 5.236-82.867-1.557M148.831 101.967a119.592 119.592 0 0 1-18.612 7.197M162.944 79.652c4.816 8.965-5.261 17.534-14.108 22.34M133.688 63.086c10.539 2.794 19.277 5.892 25.919 12.374M17.432 102.606C8.744 98.036-1.088 89.98 2.027 81.108c3.114-8.872 16.92-14.066 27.173-16.91" stroke="#F2E60C"/>
    <path d="M46.723 161.183A121.046 121.046 0 0 1 29.5 156.09M139.483 156.369c-26.686 10.472-58.21 12.156-86.975 6.263M154.603 149.104a95.452 95.452 0 0 1-10.994 5.555M166 137.605c-1.911 4.681-6.541 8.502-11.398 11.532M22.609 154.104c-8.948-3.72-19.361-11.178-21.609-17.92M1 111.226V91.529M1 136.183v-18.964M100.124 157.723c-4.54.409-9.097.628-13.67.656M151.441 141.629c-13.04 8.358-29.228 13.358-45.879 15.496M33.522 119.4a66.046 66.046 0 0 1-13.99-4.361M35.682 126.251c-10.035-1.297-25.212-6.069-29.463-13.897M10.266 105.385v33.147M16.242 132.801v11.355M159.367 110.619v24.562M152.797 124.062v10.455" stroke="#C0C0C2"/>
    <path d="M18.179 163.246c1.162-.446 3.906-1.625 3.57-3.367-.363-1.886-3.73-1.802-5.051-1.684-2.265.143-5.102.758-6.87 2.332-1.633 1.456-1.094 3.022 1.053 3.485M4.64 152.102c-1.07.202-1.793.589-1.911 1.111-.244 1.035 2.02 2.214 5.05 2.626 3.031.413 5.683-.092 5.893-1.136.21-1.044-2.028-2.214-5.05-2.627l-.775-.084M8.25 82.447c4.563-1.465 9.799 2.012 9.05 4.167M75.094 111.226c4.209-5.892 15.354-5.109 18.696-3.56M102.609 104.492c1.633-3.469 6.836-3.561 8.982-2.063M93.602 111.226c.193-2.525 3.653-7.138 11.246-3.56M151.063 77.303c-3.67-.379-3.923 5.329-2.054 7.054M12.813 87.725c4.916.505 7.576 2.77 6.734 6.38M36.781 100.342c5.834-1.179 8.2 4.546 6.541 6.608" stroke="#F2E60C"/>
    <path d="M35.328 78.507V56.26M129.359 78.507V56.26M68.074 67.404c-11.238-1.397-23.57-4.166-32.746-11.144M94.43 3.205a17.826 17.826 0 0 1 14.128 14.46 17.83 17.83 0 0 1-.213 7.114M54.53 25.798c-6.902-14.31 11.12-22.651 22.561-24.31a43.776 43.776 0 0 1 12.459-.084" stroke="#C0C0C2"/>
    <path d="M41.906 18.543c5.405.438 9.95 3.914 13.259 8.006M33.515 54.577c-9.698-7.205-13.107-20.765-4.647-30.37a17.197 17.197 0 0 1 6.911-4.814M132.335 52.81c24.084-17.93 3.536-46.212-23.991-28.03M55.164 26.547l6.97 9.992M108.347 24.78l-1.245 12.204" stroke="#C0C0C2"/>
    <path d="M33.524 26.547c-4.47 3.535-7.77 10.858-2.585 16.414M58.648 23.263c.707-8.585 2.475-13.383 11.314-14.646M126.781 63.137c-7.829 5.665-15.851 7.576-21.937 7.5M131.078 25.285c6.061 5.05 8.334 8.333 4.041 15.404M124.909 82.094c-4.386 2.146-8.275 4.335-13.175 5.168M124.906 68.541v9.967M165.945 91.512v43.004M49.25 58.617c6.532 3.03 17.82 6.617 35.153 5.581" stroke="#C0C0C2"/>
  </symbol>

  <symbol id="breakfastIcon" viewBox="0 0 167 167" fill="none">
    <path d="M55.65 22.879c16.6 2.09 25.43 21.612 15.96 35.388C62.138 72.043 40.947 71 32.85 56.464a22.91 22.91 0 0 1 3.598-26.845M43.016 24.894a22.894 22.894 0 0 1 8.737-2.165" stroke="#ED9E05"/>
    <path d="M71.475 41.879c.253 5.055.48 14.577-9.1 20.44" stroke="#ED9E05"/>
    <path d="M52.79 71.598c4.49.725 15.545-.792 22.79-11.139" stroke="#C0C0C2"/>
    <path d="M109.949 70.053c15.57-6.126 32.709 6.74 31.04 23.407-1.668 16.666-20.769 25.85-34.866 16.986a22.942 22.942 0 0 1-9.79-25.278M99.836 77.647a22.742 22.742 0 0 1 6.623-6.092" stroke="#ED9E05"/>
    <path d="M132.977 79.135c2.654 4.305 7.431 12.554 1.853 22.294" stroke="#ED9E05"/>
    <path d="M130.898 113.938c4.289-1.525 13.263-8.148 14.636-20.694" stroke="#C0C0C2"/>
    <path d="M7.867 22.972c4.028-8.67 9.926-14.56 17.736-18.048M11.995 90.168C-.593 72.853-1.587 49.59 5.045 30.463M72.31 117.022c-4.254-3.135-8.728-6.126-13.742-7.912-5.013-1.786-10.389-2.57-15.529-3.808-9.782-2.351-19.977-5.418-27.805-12.033M164.848 92.2c-1.685 13.481-4.693 28.411-14.323 38.64-10.752 11.417-30.839 13.768-45.163 8.729-9.563-3.37-17.694-9.985-25.37-16.338M158.805 48.67c7.827 11.392 7.785 24.654 6.639 37.916M33.742 2.295a54.007 54.007 0 0 1 6.48-1.01c35.27-3.498 26.743 26.473 66.235 24.855 15.823-.64 35.388 4.34 47.648 16.852M36.64 120.82c-16.852.893-23.197 6.884-28.968 11.999M104.036 146.057c-11.392-.506-20.787-3.202-28.454-8.527-7.667-5.325-22.792-18.84-33.004-16.708M76.375 161.4a69.689 69.689 0 0 0 18.31 4.601M7.078 155.417c12.9-6.126 43.604-16.54 52.046-5.898 3.37 4.263 8.173 7.583 13.347 10.111M5.992 136.703l1.087 18.705M94.688 165.999l10.296-16.733" stroke="#ED9E05"/>
    <path d="M32.117 136.873c15.167-3.168 31.176 1.879 41.287 13.649 6.74 6.741 16.009 8.426 25.092 9.269M6.633 147.715a62.412 62.412 0 0 1 17.466-8.779M7.175 55.647c-.143 9.908 1.062 21.78 7.777 29.633a17.628 17.628 0 0 0 6.378 4.778M9.74 38.568c-1.609 3.716-2.03 8.064-2.342 12.05M120.672 32.014c5.898 1.17 13.203 2.84 17.551 7.313M102.047 30.555a63.244 63.244 0 0 1 13.532.607M127.578 137.132c7.988-1.356 14.897-6.1 20.492-11.796M110.133 134.883a36.57 36.57 0 0 0 12.335 2.646M148.727 54.637a8.224 8.224 0 0 1 6.631 5.898c.792 3.277.413 5.485 3.446 7.81M132.25 49.918c3.025 4.33 7.524 4.6 12.369 4.49M46.594 97.025c-3.488.186-6.075-1.221-8.426-3.614-1.895-1.904-3.623-3.935-6.605-3.455M58.953 98.754c-2.064-2.165-4.879-2.527-7.726-2.216M18.954 21.05c-2.84 3.835-3.564 9 .767 4.989 4.33-4.01 5.055-8.527 3.058-7.97-1.997.555-3.825 2.982-3.825 2.982ZM110.206 55.218c-.75 1.685 3.884 3.37 7.153 1.348 3.269-2.022-.691-3.514-3.614-2.974-2.924.539-3.539 1.626-3.539 1.626ZM113.539 128.244c4.112 1.357 13.65 4.415 24.679-5.502M83.516 13.611a22 22 0 0 0 22.269 4.474M73.61 4.924c.994 1.171 5.29 5.35 6.327 6.48M8.523 97.658c5.005 7.929 13.76 12.58 24.57 12.698M73.04 107.98c7.144 1.997 19.859 10.406 21.771 18.251" stroke="#C0C0C2"/>
  </symbol>

  <symbol id="dessetrsIcon" viewBox="0 0 167 167" fill="none">
    <path d="M78.14 14.486c3.473-4.433 6.967-8.849 10.484-13.248M23.875 84.823C40.703 64.909 55.007 43.652 70.749 23.89M19.776 90c-6.42 7.976-5.47 6.632-11.51 14.897M124.176 63.207C98.092 73.937 72.11 85.102 46.043 95.986a2965.893 2965.893 0 0 1-21.918 9.064M153.403 51.082c-11.847 4.337-10.938 4.55-22.575 9.353M92.484 1c16.988 10.323 41.313 24.71 57.973 35.56M1 166l164.771-75.668" stroke="#C0C0C2"/>
    <path d="M42.203 89.448c4.164 0 7.539-2.075 7.539-4.634 0-2.56-3.375-4.634-7.539-4.634s-7.539 2.074-7.539 4.634c0 2.56 3.375 4.634 7.539 4.634ZM96.807 30.787c-2.608-1.225-6.193-1.02-8.995-.68M79.765 33.974c-2.903 3.401-4.662 8.325-3.071 12.704 1.17 3.24 4.998 6.555 8.616 5.416 3.147-.995 4.922-3.767 8.49-4.133 3.28-.331 5.57-.484 6.874-4.03.56-1.683.764-3.466.599-5.234a12.764 12.764 0 0 0-1.559-5.029" stroke="#CA160B"/>
    <path d="M62.266 15.021c11.308.944 22.6 7.79 23.71 20.127M52.531 15.974a19.579 19.579 0 0 1 5.722-1.029M123.016 49.144c1.632-.4 11.207-1.36 11.611-2.908M79.158 71.71c-3.584 2.05-15.692 2.407-15.65-4.098.05-7.364 13.858-8.97 18.174-7.194 3.837 1.59 13.277 4.252 17.383 1.556 3.644-2.372 4.031-5.34 5.217-9.455 1.759-6.063 8.414-5.416 15.011-3.597" stroke="#C0C0C2"/>
    <path d="M107.898 82.168c6.732.69 13.463 5.391 20.017 1.446 6.159-3.716 8.869-11.777 15.145-15.348a3.344 3.344 0 0 1 2.028-.612M65.36 97.5c7.21-3.128 15.43.85 22.448-2.644 6.344-3.163 8.633-11.802 16.331-12.66M53.602 107.934c2.482-3.002 4.99-6.054 8.153-8.35M8.266 129.004c6.537-5.339 15.229-4.914 23.088-6.13 8.094-1.25 14.388-5.901 19.739-11.964" stroke="#CA160B"/>
    <path d="M25.563 132.243c3.719-.255 7.572.298 11.19-.646 4.93-1.276 8.776-5.102 12.108-8.767 5.343-5.952 11.005-17.567 20.193-17.397 8.742.153 22.718 4.294 28.751-4.617 2.053-3.044 2.735-7.04 5.292-9.736 3.307-3.486 8.566-2.185 12.714-1.31 5.158 1.098 11.897 3.682 16.735.332 4.586-3.171 7.901-9.974 13.564-11.385M12.367 136.664a31.469 31.469 0 0 1 9.256-3.852" stroke="#CA160B"/>
    <path d="M159.422 65.912v21.615M159.422 52.834v9.175M131.125 99.021c6.799-3.129 13.617-6.207 20.454-9.234M109.422 22.742l12.537 7.9M92.43 12.02l13.277 8.375M87.633 14.57l21.203 13.503M57.672 48.957l9.18-10.918M165.773 49.867a900.8 900.8 0 0 1 0 40.466M1 130.424c.16 11.861.16 19.948 0 31.758M1 117.814v8.087M4.629 108.63c-7.573 9.192-1.195 6.122 6.63 2.279a554.153 554.153 0 0 1 8.515-4.124M157.297 40.828c1.615.918 4.754 1.964 5.696 3.707 1.33 2.492-2.524 3.563-4.266 4.116" stroke="#C0C0C2"/>
  </symbol>

  <symbol id="futomakiIcon" viewBox="0 0 167 167" fill="none">
    <path d="M3.352 44.752c2.83-8.584 8.424-15.96 15.24-21.906M83.38 112.915c-28.189 0-64.406-10.777-77.7-38.068C1.931 67.138.381 58.94 1.84 50.597M129.944 102.869a112.98 112.98 0 0 1-42.35 9.971M121.414 7.23c17.018 5.435 33.125 16.027 41.044 31.827 10.952 23.519-5.054 49.558-26.495 60.772M25.86 17.301C52.177.418 85.85-2.942 115.007 5.331" stroke="#F2E60C"/>
    <path d="M26.798 152.35C13.453 144.891.833 132.292 1.002 116.492M165.867 116.492c0 17.589-14.878 30.575-29.418 37.916-20.683 10.441-45.207 13.272-68.054 10.702a113.154 113.154 0 0 1-36.301-9.996" stroke="#C0C0C2"/>
    <path d="M113.713 81.266c-18.534 7.265-40.901 7.206-59.351-.311-13.606-5.544-28.644-18.026-24.373-34.439 2.671-10.315 11.93-17.564 21.163-21.94M57.594 21.912c17.009-5.88 36.41-6.165 53.428-.15 14.482 5.114 32.351 18.15 27.801 35.832-2.485 9.777-10.952 16.8-19.604 21.184" stroke="#F2E60C"/>
    <path d="M98.898 34.117c8.24-2.058 16.007-2.596 20.927-8.517M81.531 45.105c1.963-4.2 5.678-6.72 9.857-8.542M90.241 86.329c-5.425-10.794-12.308-24.586-10.05-37.06M122.836 41.938c4.414-1.739 5.762-4.452 8.711-7.829M98.536 61.458c-3.118-13.221 10.109-14.725 19.376-17.808M107.02 83.507c-2.376-6.207-4.937-10.718-6.942-17.06M126.175 74.579c-8.163-13.6-16.049-22.461 13.269-24.956" stroke="#F2E60C"/>
    <path d="M45.969 40.2A28.345 28.345 0 0 1 59.97 42.92c7.38 3.46 13.935 10.08 20.607 19.176M30.484 44.903a30.711 30.711 0 0 1 9.04-3.36" stroke="#F2E60C"/>
    <path d="M86.704 17.578c-5.316 18.185 4.608 18.303-28.509 24.544M66.14 68.506c2.848 5.434 2.528 10.5 2.014 16.488M33.977 65.986c8.104-6.157 21.457-11.423 29.384-2.05M70.735 18.637c5.552 9.768-6.883 16.43-19.579 21.705M51.984 69.825c7.507-2.78 5.24 7.19 4.727 12.028M42.688 74.579c1.255-.924 2.527-1.806 3.9-2.604" stroke="#F2E60C"/>
    <path d="M108.945 95.326a9.374 9.374 0 0 1 4.962 1.58M97.984 102.038a10.658 10.658 0 0 1 2.615-3.845 10.702 10.702 0 0 1 4.007-2.37M121.414 92.335c1.39-4.989 5.821-5.123 7.65-2.965M113.75 102.038c.16-3.62 3.1-10.29 9.562-5.133M39.5 90.186c7.97-1.722 11.205 6.669 8.938 9.693M8.156 50.48c4.886-2.276 10.489 3.133 9.688 6.477M13.04 58.67c5.264.79 8.104 4.317 7.194 9.92M31.038 26.432c-.421-5.434 5.13-8.77 11.651-6.367M151.113 40.593c-3.892-.512-4.17 6.997-2.182 9.24M65.57 10.02c3.058-3.26 6.63-1.571 7.245.84M55.672 14.37c1.542-2.705 6.487-6.619 9.62-.067M1.016 109.807l.463-49.483M165.867 112.57V70.639M7.125 123.07l.227-37.882M159.625 98.315l.059-9.65M159.508 117.434l.092-15.036M159.454 126.557a62.43 62.43 0 0 1-23.345 21.503M37.958 113.335a71.792 71.792 0 0 1-25.333-19.32M56.48 119.155c-4.541-1-9.049-2.226-13.48-3.671M13.531 114.806l.11-12.39M13.422 132.461l.084-12.986M133.839 140.734a74.639 74.639 0 0 1-15.316 7.14M154.899 119.912c-2.797 7.862-10.548 13.876-17.211 18.37M157.477 147.588c-1.684 2.948-1.053 4.535.388 5.401 1.441.865 4.28-.941 6.192-4.125 1.912-3.183 2.249-6.484.741-7.391-.842-.504-2.089-.143-3.369.84M157.695 165.707c2.401-.218 7.397-1.302 8.105-4.2.758-3.091-3.892-3.503-5.897-3.36M156.012 158.854c-1.685.545-4.979 1.99-4.81 4.199.168 2.209 4.802 2.587 6.486 2.621M19.148 164.397c1.415-.529 4.726-1.924 4.322-3.956-.439-2.218-4.516-2.117-6.117-2.016-2.738.168-6.158.89-8.298 2.755-1.971 1.68-1.314 3.553 1.272 4.107M3.022 146.093c-1.112.286-1.861.84-1.988 1.521-.252 1.419 2.098 3.015 5.24 3.569 3.143.555 5.897-.151 6.15-1.562.253-1.411-2.098-3.015-5.24-3.57-.27-.05-.539-.084-.842-.117" stroke="#C0C0C2"/>
  </symbol>

  <symbol id="hotStartersIcon" viewBox="0 0 167 167" fill="none">
    <path d="m1 70.533 7.196-20.76M165.998 70.332l-4.162-13.691M8.195 49.781c9.791 5.662 19.902 11.56 29.49 17.533M42.49 33.1C31.437 39.435 19.64 44.49 8.165 49.782M85.055 12.424C72.753 17.529 60.957 24.27 48.344 30.269M160.246 51.408c-8.291 4.878-16.717 9.934-24.957 14.214M134.109 37.852l26.137 13.547M118.766 29.898l6.15 3.194M85.055 12.424l23.819 12.352M75.816 109.348l-3.91 6.976M83.946 94.857l-5.157 9.176M5.414 73.365c21.907 14.096 44.657 28.419 66.564 42.969M83.945 94.857l9.168 19.286M165.996 70.332c-23.314 14.584-46.906 29.75-69.934 44.763M83.777 124.852c-.05 13.16-.05 27.483-.261 41.148M83.94 94.857c-.236 8.611-.236 17.036-.16 25.099" stroke="#C0C0C2"/>
    <path d="M83.5 165.999c16.413-10.422 32.625-22.352 49.063-32.724M138.927 120.082c-1.196 3.539-2.528 6.968-3.615 10.347M151.956 83.096c-4.297 11.795-7.71 20.692-11.628 32.656M17.703 84.975l17.475 46.507M77.925 162.538l-39.753-27.567M84.992 30.396c4.879 2.95 10.018 5.401 15.167 7.895M154.7 11.852l-39.13 42.791M118.215 44.365c-3.42 4.112-6.799 8.257-10.043 12.52M140.092 17.63c-5.899 7.87-12.311 15.36-18.647 22.884M149.093 6.578l-5.249 6.463M106.909 35.148a212.43 212.43 0 0 1-10.456 22.218M122.968 1.008c-4.718 9.782-9.774 19.892-13.945 29.64M130.13 4.63 98.5 61.544M149.094 6.568l5.611 5.283M122.969 1l7.162 3.631" stroke="#C0C0C2"/>
    <path d="M82.54 64.728c9.596 2.528 19.707 8.426 21.342 18.78M47.43 73.13c9.108-5.68 19.682-10.204 30.636-9.15M90.016 78.756a28.074 28.074 0 0 1 7.001 8.653M56.414 78.665c8.485-5.258 20.44-7.103 29.566-2.528M69.07 86.012c7.221-2.258 15.748-5.056 20.222 5.788" stroke="#DB4900"/>
    <path d="M69.07 38.139c17.694 6.403 32.743 17.22 31.445 37.147M69.559 50.516c3.952 3.951 2.418 9.208-.489 13.312M56.414 44.441a47.757 47.757 0 0 1 8.004 2.68M37.75 53.354c11.914-1.618 22.8-.38 16.346 16.008" stroke="#DB4900"/>
    <path d="M128.272 52.824c-17.18 2.157-26.912 3.025-27.678 16.547M111.948 72.303c-.073 2.13.074 4.261.438 6.361M134.103 55.848c-6.74 3.025-18.267 3.808-21.275 11.796M84.828 18.162 64.227 28.644M84.829 25.164l-12.782 5.94M8.953 67.383 32.604 83.18M11.781 61.51 29.78 73.129M156.672 58.89l3.522 10.482M157.177 70.938l-21.318 12.991" stroke="#DB4900"/>
    <path d="m140.324 91.773-10.027 30.197M104.594 144.323l16.481-11.282M35.172 97.603l3.37 11.089M28.094 94.857l8.771 27.307M42.148 69.986C55.9 79.035 70.223 85.776 83.94 94.858M130.363 68.428c-15.478 9.765-31.487 17.347-46.418 26.43M124.102 50.65c6.53 3.48 13.043 7.002 19.707 10.23M85.005 30.396 27.828 58.183" stroke="#C0C0C2"/>
  </symbol>

  <symbol id="onigiriIcon" viewBox="0 0 167 167" fill="none">
    <path d="M12.06 101.777a381.475 381.475 0 0 0-3.177 7.925M31.907 56.006c-5.224 12.363-10.835 24.549-16.118 36.886M37.024 44.123l-2.047 4.758M126.062 39.5c10.465 23.993 20.575 46.731 30.955 69.899" stroke="#C0C0C2"/>
    <path d="M53.031 166h61.421" stroke="#CA160B"/>
    <path d="M62.266 8.752c9.385-6.737 21.18-10.106 31.291-5.895 16.008 6.737 26.119 21.896 32.505 36.642M37.023 44.123c4.98-11.37 11.417-22.545 20.44-31.16M8.883 109.701C.533 126.629-9.652 159.33 27.756 164.13M161.276 155.432c-4.213 5.634-10.953 8.135-17.753 8.699M161.297 118.385c4.263 9.802 6.74 22.292 2.527 32.515" stroke="#C0C0C2"/>
    <path d="M53.114 127.59c0 12.801-.02 25.604-.06 38.411M53.031 100.951c0 6.361.017 12.722.05 19.083M110.672 97.684h3.774M56.32 97.684c17.02.337 33.87.337 50.342 0M114.453 145.341c.169-16.161.169-31.32 0-47.657M114.453 166v-12.262" stroke="#CA160B"/>
    <path d="M27.75 164.131h25.276M143.52 164.131h-29.067M23.844 131.538c.623-6.569 6.15-9.348 8.063-7.074M136.922 129.569c3.033-2.021 8.088-.11 7.33 3.107M128.984 109.214c3.413 1.457 9.479-.522 8.215-3.47M89.938 12.07c1.516-2.054 7.077-1.869 7.835.843M32.894 91.384c1.382-.21 1.56 1.567.523 3.369-1.12 1.928-3.564 3.368-4.348 2.973-.783-.396-.766-1.306-.294-2.325M123.297 47.97l22.158 49.713M149.836 110.494l5.055 13.197M31.25 159.869l17.988-.084" stroke="#C0C0C2"/>
    <path d="M60.11 129.855v30.992M71.984 159.869h37.24M12.107 83.561c1.365-.278 1.559 1.575.522 3.369-1.129 1.928-3.564 3.368-4.347 2.98-.784-.386-.767-1.304-.304-2.332 1.399-3.032 2.646-3.705 4.129-4.017ZM133.999 33.327c.227 1.38-1.626 1.499-3.37.387-1.744-1.111-3.194-3.697-2.798-4.463.396-.767 1.34-.716 2.343-.202 2.982 1.515 3.555 2.787 3.825 4.278ZM123.728 19.347c-.969 1.002-2.173-.422-2.317-2.527-.151-2.223 1.07-4.758 1.93-4.893.859-.135 1.365.649 1.55 1.76.564 3.335-.11 4.573-1.163 5.66ZM8.863 162.993c.228 1.381-1.626 1.499-3.37.387-1.887-1.204-3.193-3.697-2.797-4.463.396-.767 1.34-.716 2.342-.202 2.983 1.516 3.581 2.787 3.825 4.278Z" stroke="#CA160B"/>
    <path d="M58.055 20.18c4.398-4.842 9.268-8.514 14.272-10.106M44.188 44.123a71.566 71.566 0 0 1 6.445-13.82M62.172 24.357c2.224-2.426 4.356-3.807 5.603-3.984M56.57 33.242a31.997 31.997 0 0 1 3.286-5.963M5.938 137.602c1.17 10.383 8.83 17.432 18.443 20.506M39.367 70.398c2.747-3.941 9.024-4.345 9.74-2.173M74.18 90.754c4.212-5.895 15.367-5.112 18.72-3.563M101.68 83.99c1.634-3.46 6.849-3.553 8.998-2.054M92.664 90.754c.194-2.527 3.657-7.142 11.248-3.562M46.21 71.822c4.214-2.577 7.71-2.383 9.218 1.002M103.914 36.274c5.839-1.171 8.206 4.547 6.547 6.61M140.641 151.852c1.634-3.469 6.849-3.562 8.998-2.063M131.625 158.605c.194-2.526 3.657-7.141 11.248-3.562M71.79 49.841c2.998-3.882 9.764-2.341 10.505.53M80.469 44.703c5.788-2.248 10.506-.572 12.46 5.154" stroke="#C0C0C2"/>
  </symbol>

  <symbol id="extrasIcon" viewBox="0 0 168 167" fill="none">
    <path d="M154.794 59.55c6.167 10.752 1.618 23.112-9.95 33.063M49.844 37.441a142.313 142.313 0 0 1-14.037 6.193c-13.986 5.553-37.07 20.053-18.46 47.007M118.328 99.79c6.664-3.092 11.627-7.102 15.005-11.593M91.639 16.436c-3.252 30.374 37.509 37.316 22.023 53.08-13.817 14.03 13.599 21.47-20.414 33.13M39.994 61.816c-9.554 11.215-13.396 25.732 6.74 37.612M83.503 1c1.854 38.252 3.235 52.601-11.24 61.17-28.19 16.683 33.946 26.026 4.407 40.493" stroke="#87E80C"/>
    <path d="M1 83.664c7.11 33.121 21.518 56.19 48.563 72.629 22.68 13.784 47.754 12.217 67.991-.464 30.331-19.016 43.98-56.83 48.445-72.165" stroke="#C0C0C2"/>
    <path d="M160.571 66.77c18.021 14.079-13.312 25.976-28.368 29.97M7.844 85.087c-3.16-2.36-5.114-4.584-6.083-6.682-2.165-4.667.523-8.678 5.679-12.04M25.49 93.816c-4.482-1.584-13.186-4.794-17.693-8.728M58.592 101.308a179.46 179.46 0 0 1-22.748-4.34M132.198 96.74c-20.81 5.485-43.996 7.288-66.323 5.333M23.188 122.008a72.296 72.296 0 0 0 14.643 17.171M13.5 100.051c1.12 5.123 3.8 11.796 7.633 18.536M135.602 104.49c10.514-2.78 18.72-7.127 22.394-11.306M122.859 106.859a93.51 93.51 0 0 0 8.83-1.441M132.287 135.625c-4.33 5.982-15.662 15.225-27.011 19.421-8.24 3.05-15.907 5.055-24.635 4.036M136.203 130.954c5.308-6.175 7.583-8.829 10.616-14.626" stroke="#C0C0C2"/>
    <path d="M83.5 1c30.668 37.915 46.844 40.443 56.929 45.81a44.587 44.587 0 0 1 8.67 5.898" stroke="#87E80C" stroke-width="2" stroke-linecap="round" stroke-linejoin="round"/>
    <path d="M83.502 1C75.44 17.497 66.054 27.052 56.828 33.279" stroke="#87E80C"/>
    <path d="M137.539 80.327a25.687 25.687 0 0 0-1.938-20.862C127.311 44.308 101.37 41.948 83.5 1M83.996 12.627c-5.384 21.906-18.317 29.254-24.593 33.138a99.687 99.687 0 0 0-11.66 8.425" stroke="#87E80C"/>
  </symbol>

  <symbol id="gunkanIcon" viewBox="0 0 167 167" fill="none">
    <path d="M1.007 146.163c-.07 2.31.356 4.607 1.247 6.739 7.364 17.757 49.712 17.42 94.645-.767 41.699-16.847 69.183-41.216 69.091-59.487" stroke="#C0C0C2"/>
    <path d="M113.367 134.571a207.158 207.158 0 0 0 25.462-15.844M47.883 156.573c19.733-2.282 38.758-8.777 56.578-17.436M5.758 104.652c5.771 6.124 15.259 6.486 23.078 5.813" stroke="#C0C0C2"/>
    <path d="M29.522 40.994c-5.738-.918-11.012 5.358-8.805 10.766-5.114-.405-9.336 4.81-8.367 9.687M42.89 33.203c-3.725-2.99-9.496-1.39-12.117 2.114M90.605 90.02c-2.67-5.213-11.796-6.443-14.568-.69-3.774-4.288-11.871-2.931-13.64 2.645-3.657-3.521-10.213-2.266-12.64 2.106M136.415 66.972a8.156 8.156 0 0 0-14.054.547c-7.288-8.954-20.348 4.086-11.257 11.187M68.855 11.191a8.424 8.424 0 0 0-2.528 4.212c-3.64-2.88-8.805-1.036-10.827 2.847M80.27 14.689a6.671 6.671 0 0 0-7.692-5.316M162.114 28.058c2.325-2.005 3.547-6.26 1.76-8.778-1.364-1.92-3.286-3.74-6.074-3.175a6.84 6.84 0 0 0-1.686-5.459 6.425 6.425 0 0 0-9.049-.918 6.06 6.06 0 0 0-2.005 5.121" stroke="#DB4900"/>
    <path d="M149.486 8.43c.48-6.292-9.774-9.325-13.911-4.776a8.107 8.107 0 0 0-4.786-2.527M63.957 23.136c-4.061-3.21-12.032-.649-12.024 4.978-7.338-1.162-13.287 8.036-7.296 13.478M130.786 1.126a8.066 8.066 0 0 0-7.221 2.636 8.109 8.109 0 0 0-2.823-1.836c-2.308-.842-9.083.16-9.984 2.872M17.118 63.36C8.516 56.906.006 68.278 7.243 75.556M31.792 53.075c-5.056-.328-10.372 4.911-9.403 9.864M34.968 45.492a7.927 7.927 0 0 0-3.177 7.53" stroke="#DB4900"/>
    <path d="M59.633 44.222c-1.306-8.828-15.31-8.264-15.916.64a7.635 7.635 0 0 0-3.522-1.053M125.875 21.461c2.418-4.49 9.656-6.191 13.346-2.746M117.805 20.156a7.859 7.859 0 0 1 8.071 1.306M101.031 34.248c.447-5.56 6.412-9.763 11.594-7.008a7.575 7.575 0 0 1 1.576-4.406M158.976 47.372c-4.575-4.355-13.354-1.685-13.801 4.92-5.502-3.185-13.017 1.835-11.947 8.178M7.248 75.557c-4.929 2.62-5.814 6.89-6.092 13.309M159.913 37.91a8.1 8.1 0 0 0-8.038 1.34 8.05 8.05 0 0 0-10.709.345 8.081 8.081 0 0 0-7.372-1.22 8.083 8.083 0 0 0-10.347-1.045 7.859 7.859 0 0 0-2.705 3.167M95.131 11.58c-3.825-.733-7.128 1.474-8.501 5.054A8.056 8.056 0 0 0 73.545 20.5c.004.053.004.107 0 .16a8.066 8.066 0 0 0-9.622 2.637 7.883 7.883 0 0 0-.506 8.583M120.036 45.408a7.928 7.928 0 0 0 2.519 4.355c-2.687 2.662-3.69 6.941-1.744 10.327 1.593 2.78 3.834 3.201 5.519 3.698M86.246 57.977c-7.398-1.365-12.032 8.423-6.665 13.477-5.443 2.864-5.417 12.198.717 14.245M115.35 64.546c-2.739-6.882-14.324-5.29-15.301 1.946a8.432 8.432 0 0 0-6.9-1.112 7.757 7.757 0 0 0-2.25-4.944" stroke="#DB4900"/>
    <path d="M126.153 15.935c.329-5.838-7.836-8.424-11.029-3.605a6.19 6.19 0 0 0-4.323-2.974 6.135 6.135 0 0 0-2.714-7.57A6.142 6.142 0 0 0 105.3 1a6.033 6.033 0 0 0-5.671 8.129 6.1 6.1 0 0 0-5.679 5.197c-.716 2.611 1.053 4.852 3.37 5.947M87.001 32.015c-5.19-1.685-11.164 1.608-13.33 7.059M93.281 74.63c-5.67-2.367-9.984 4.211-7.65 7.58M48.305 65.053c0-11.372 14.913-10.454 14.736-1.938a8.115 8.115 0 0 1 8.266 5.99c1.33 3.369-.683 6.57-3.581 8.355" stroke="#DB4900"/>
    <path d="M28.978 76.012c-1.298-7.674 9.125-12.273 14.046-6.385a8.248 8.248 0 0 1 5.282-4.574M131.83 34.349c-1.298-7.674 9.125-12.273 14.045-6.385a8.232 8.232 0 0 1 5.291-4.566M11.86 76.66c3.589-4.986 10.692-1.684 10.506 2.469M46.885 26.12c-1.55-6.613 5.157-10.698 8.628-7.851M37.222 88.494a7.683 7.683 0 0 0-2.688 2.999 8.274 8.274 0 0 0-10.953-1.685C19.132 81.511 5.255 88.124 8.634 96.8M89.531 48.906a8.427 8.427 0 0 1 9.142-2.713c1.365-5.669 8.426-6.831 12.832-4.01M47.102 100.82c5.005-4.692 1.904-13.596-5.055-13.722M165.996 35.317c-.505-4.59-2.443-7.329-5.426-7.708" stroke="#DB4900"/>
    <path d="m1.16 88.865-.152 57.297M166 35.318v57.289M158.906 56.654c.163 12.916.191 25.818.085 38.706M5.695 111.871c.152 12.916.177 25.832.076 38.748" stroke="#C0C0C2"/>
    <path d="M143.828 151.199a8.292 8.292 0 0 1 12.655 10.06 8.293 8.293 0 0 1-13.955 1.579 8.285 8.285 0 0 1-1.809-5.17c.001-.363.023-.726.067-1.086" stroke="#DB4900"/>
    <path d="M164.444 145.926a8.243 8.243 0 0 1 1.55 4.826c0 4.583-4.213 8.424-8.83 8.424M149.461 149.389a8.42 8.42 0 0 1 8.24-6.924 8.286 8.286 0 0 1 2.865.505" stroke="#DB4900"/>
    <path d="M1.156 88.867c7.339 17.756 51.152 16.931 95.934-1.247 35.7-14.489 63.319-35.202 68.905-52.302" stroke="#C0C0C2"/>
  </symbol>

  <symbol id="tatakiIcon" viewBox="0 0 167 167" fill="none">
    <path d="M153.177 107.17c1.39.893.396 2.755-1.685 2.721M41.724 18.816c1.39.893.396 2.755-1.685 2.722M63.502 102.527c1.382.893.396 2.747-1.643 2.722M82.58 68.115c1.382.893.388 2.755-1.642 2.722M28.471 36.334c1.39.893.396 2.755-1.643 2.721M49.924 60.818c1.39.893.396 2.755-1.643 2.722M127.812 68.31c.776-2.57 3.236-2.638 4.213-1.526M94.108 110.794c-.724-2.283 1.011-3.454 2.284-3.075M95.988 50.884C95.272 48.593 97 47.43 98.28 47.81M153.204 79.701c-2.443.093-3.151-1.845-2.443-2.957M121.614 55.889c-2.443.092-3.142-1.845-2.443-2.957M95.247 132.785c-2.443.093-3.142-1.845-2.443-2.957M26.376 73.996c-2.444.093-3.151-1.845-2.444-2.957M51.923 95.079c-2.443.093-3.142-1.854-2.435-2.966M89.352 30.99a1.685 1.685 0 0 1-1.778-2.334M73.93 16.969a1.685 1.685 0 0 1-1.778-2.367M79.602 118.241c-2.435.093-3.143-1.845-2.435-2.966M115.172 150.757c.91-2.224 3.008-2.064 3.749-.977M132.076 137.697c-.968-2.275.177-3.075 1.247-2.527M67.827 90.975c-.97-2.267.177-3.067 1.238-2.528M13.283 58.2c-.961-2.267.185-3.068 1.246-2.529M38.715 84.596c-2.283-1.028-1.988-2.376-.842-2.662M70.928 35.195c-.969-2.266.177-3.067 1.247-2.527M55.665 6.285c-.96-2.275.186-3.075 1.247-2.527" stroke="#C0C0C2"/>
    <path d="M136.82 71.578c6.471 5.056 12.79 10.254 19.184 15.377M108.836 49.309l6.336 5.097M85.445 31.816c3.168 2.444 6.53 4.904 9.639 7.406M64.125 12.613c5.055 3.843 11.054 8.3 10.708 12.386M96.133 130.686c5.712 4.491 11.003 9.445 16.648 14.02M69.672 106.723c4.154 3.37 11.39 9.588 16.345 12.816M43.664 85.111c4.246 3.64 12.528 7.853 16.74 11.417M19.727 65.006c4.313 3.513 11.534 8.813 16.521 9.782M147.094 110.203c-8.214 10.954-16.766 21.68-24.61 32.861M156.147 97.742a324.486 324.486 0 0 1-4.381 6.142M100.787 106.723a1304.838 1304.838 0 0 0-6.639 8.569M123.081 77.695c-5.973 8.283-12.301 16.338-18.628 24.385M31.594 37.697c6.538-8.282 13.11-16.54 19.276-25.084M18.64 54.448c2.32-3.106 4.671-6.196 7.052-9.268M89.817 64.266a1720.346 1720.346 0 0 0-21.551 30.796M97.477 53.656l-3.555 4.929M66.646 45.205c-8.282 10.39-16.774 20.618-24.787 31.176M76.412 32.65a448.686 448.686 0 0 1-5.35 6.951M156.008 86.957c2.991 2.958 4.061 6.008.143 10.785M112.781 144.707c3.699 2.696 7.347 1.584 9.706-1.643" stroke="#DB4900"/>
    <path d="M123.086 77.695c3.218-4.743 8.493-9.444 13.741-6.116M94.152 115.293c-3.522 5.94-3.682 9.943 1.98 15.394M119.289 58.494c4.305 2.898 5.426 4.213 5.148 8.114M68.266 95.063c-2.418 4.01-3.808 8.248 1.365 11.661M97.477 53.656c3.858-5.83 7.397-7.65 11.382-4.348M95.086 39.223c1.828 1.685 2.73 2.131 3.522 4.212M76.414 32.65c3.185-3.968 6.825-2.586 9.023-.842M50.867 12.613c3.758-4.828 6.622-5.62 13.253 0M18.647 54.45c-2.898 4.212-4.103 5.897 1.079 10.557M41.877 76.406c-3.37 4.913-1.77 5.646 1.803 8.704M99.477 133.408c4.979-6.741 27.061-8.308 31.097-1.45M120.422 117.693a34.73 34.73 0 0 1 14.786 8.131" stroke="#DB4900"/>
    <path d="M92.031 124.787c4.777-4.887 12.781-8.333 21.594-8.055M97.64 110.769c12.386-1.467 34.19-9.033 45.235 4.996M108.648 96.738c14.433 1.525 33.752-2.612 39.245 7.145M118.797 83.527c18.678 3.194 30.128-1.053 37.357 14.215M68.266 95.063c13.741 2.14 19.285 4.153 24.214 11.661M73.836 86.956c14.137-2.073 21.905 1.879 27.331 8.847M101.164 74.082c6.462 1.432 7.97 4.609 10.489 8.923M83.328 73.398c4.213.455 10.279-.564 13.725 0M99.61 61.004c6.327.404 13.884 3.117 19.327 12.395M44.836 72.522c8.24 6.395 20.768 3.37 22.546 12.79M71.36 67.686c2.249 1.204 3.749 3.53 4.827 5.585M53.406 61.67c4.213 2.123 8.796 2.275 13.657 4.052M64.46 47.943c8.359 3.236 15.166 3 21.426 11.839M72.96 37.176c6.522 4.465 16.851 3.598 21.359 10.768M73.742 22.185c-4.954 6.193-17.465 9.935-26.539-4.583M49.907 36.132a28.74 28.74 0 0 1-9.782-9.269M62.994 40.134a12.984 12.984 0 0 1-9.267-1.812M52.113 53.86c-7.962-1.13-13.11-6.277-18.746-18.41M44.33 63.523c-11.29-3.008-18.139 0-22.486-13.33" stroke="#DB4900"/>
    <path d="m110.617 33.855 33.659 28.194M83.25 10.938l21.602 18.09" stroke="#C0C0C2"/>
    <path d="m72.96 136.484 23.39 24.629M17.258 77.814l51.494 54.247M14.906 79.996 91.34 166" stroke="#DB4900"/>
    <path d="m101.32 20.18 35.226 29.507M149.605 117.391l-16.917 22.699M137.469 63.531c8.787 6.926 17.929 12.749 26.067 21.065M90.172 133.451c7.768 6.168 14.955 12.951 22.621 19.22M118.938 73.398c-8.122 11.359-16.446 20.4-25.04 31.429M163.545 84.621c3.462 5.266 6.335 7.263-13.936 32.769M112.797 152.67c9.268 4.87 13.337-3.497 19.892-12.58" stroke="#C0C0C2"/>
    <path d="M118.938 73.4c4.372-6.497 11.407-14.426 18.535-9.867M93.898 104.828c-9.133 11.889-11.408 21.158-3.724 28.648M60.14 2.184C68.929 9.1 81.449 17.097 81.205 23.105M14.906 69.48c7.777 6.168 12.503 8.848 20.17 15.117M42.618 13.803c-8.114 11.358-16.438 20.39-25.04 31.42" stroke="#C0C0C2"/>
    <path d="M42.625 13.802c4.381-6.505 10.388-16.186 17.524-11.62M17.58 45.223C8.455 57.112 7.25 62.007 14.91 69.48M109.273 42.535c8.788 6.926 14.087 11.122 21.965 19.869M63.781 110.195c7.768 6.168 14.82 11.038 22.487 17.307M92.045 51.121C83.93 62.48 73.063 78.084 64.46 89.114" stroke="#C0C0C2"/>
    <path d="M92.047 51.12c4.381-6.504 10.11-13.152 17.238-8.585M64.457 89.113c-6.934 9.008-5.856 17.61-.716 21.065" stroke="#C0C0C2"/>
    <path d="M84.266 24.166c8.787 6.918 12.3 8.123 20.22 16.852M38.727 89.113c7.768 6.168 13.733 9.9 21.408 16.17M68.765 32.398c-8.122 11.359-20.718 26.264-29.32 37.294" stroke="#C0C0C2"/>
    <path d="M68.766 32.399c4.372-6.505 8.425-11.847 15.502-8.233M39.441 69.691c-6.934 9.008-5.897 15.95-.716 19.422" stroke="#C0C0C2"/>
    <path d="m17.257 77.814-2.35 2.183M96.348 161.113 91.344 166M3.563 72.48l67.73 89.442M35.313 122.852l30.482 43.149M1 74.283l30.322 42.914M3.561 72.48 1 74.284M71.29 161.922 65.797 166" stroke="#DB4900"/>
  </symbol>

  <symbol id="setsIcon" viewBox="0 0 167 167" fill="none">
    <path d="M102.324 14.707c7.317 7.016-2.382 13.99-6.668 15.902M74.336 9.544c9.53-1.44 19.567-.733 27.986 5.163M60.228 24.984a9.157 9.157 0 0 1-1.726-3.209c-1.945-7.05 11.619-11.346 15.803-12.23" stroke="#ED9E05"/>
    <path d="M95.674 30.568a34.204 34.204 0 0 1-27.447.11" stroke="#ED9E05"/>
    <path d="M101.195 45.678c-13.673 6.67-37.298 4.144-48.117-4.877M112.207 39.445a32.195 32.195 0 0 1-7.527 4.742M122.078 19.332c2.408 7.269-2.627 14.226-7.047 18.118M62.89 4.086C75.58-.033 88.344.119 101.049 3.665c7.468 2.089 14.709 4.91 19.365 12.263M49.375 37.955c-4.336-3.714-9.261-10.267-7.695-17.435 1.566-7.168 8.42-11.413 13.58-13.721M123.597 65.244C111.995 84.566 88.076 89.84 70.833 86.622a53.738 53.738 0 0 1-15.45-5.282M55.385 81.325c-6.576-2.906-13.084-10.68-14.22-16.147M41.164 48.012V30.324M41.164 65.178V48.012" stroke="#C0C0C2"/>
    <path d="M80.281 33.398c0-6.36 6.08-17.209 14.313-22.6" stroke="#ED9E05"/>
    <path d="M62.64 14.268c7.755-1.053 17.48 2.527 20.814 9.03" stroke="#ED9E05"/>
    <path d="M87.524 9.443c-1.49 3.673-4.664 6.099-9.977 7.926" stroke="#ED9E05"/>
    <path d="M116.324 69.592a43.954 43.954 0 0 1-22.918 12.567M58.491 57.125c-5.01-1.053-12.629-4.919-14.725-11.27M46.563 42.908v23.424M120.75 44.45v19.953M116.141 55.22v8.474" stroke="#C0C0C2"/>
    <path d="M93.404 31.477c-5.893-2.468-3.83-13.477 8.934-16.846" stroke="#ED9E05"/>
    <path d="M44.781 21.598c2.282-1.188 4.9 1.634 4.522 3.369M78.188 44.921c2.096-4.776 7.67-4.136 9.337-2.88M91.938 39.445c.841-2.805 3.418-2.881 4.487-1.685M87.43 44.92c.092-2.03 1.827-5.786 5.615-2.88M116.137 17.437c-1.835-.312-1.962 4.312-1.027 5.71M51.96 13.782c-.143-2.451 1.836-3.95 4.16-2.873M47.063 25.875c2.458.413 3.78 2.257 3.367 5.18M59.047 36.11c2.913-.952 4.092 3.689 3.267 5.365M123.602 28.395l.126 33.674" stroke="#C0C0C2"/>
    <path d="M62.898 84.55a18.996 18.996 0 0 1-7.578 5.947M19.878 84.903a9.014 9.014 0 0 1-1.726-3.209c-1.945-7.05 9.581-11.354 24.526-12.567M55.291 90.514a34.239 34.239 0 0 1-27.447.1" stroke="#ED9E05"/>
    <path d="M60.813 105.6c-13.674 6.67-37.299 4.144-48.118-4.877M74.652 97.37a39.126 39.126 0 0 1-10.347 6.737M81.342 87.658c-1.314 4.212-3.772 7.135-6.694 9.712M22.508 64.006c6.23-2.013 12.225-3.52 18.657-3.563M8.993 97.875C4.657 94.161-.27 87.608 1.297 80.44c1.566-7.168 8.462-11.413 13.58-13.721M82.204 128.156c-10.836 18.792-34.806 21.319-51.569 18.337A52.519 52.519 0 0 1 15 141.245M10.755 138.66c-4.47-3.016-6.348-5.896-8.958-10.504" stroke="#C0C0C2"/>
    <path d="M39.898 93.318c2.4-4.784 2.467-14.64 9.077-16.299" stroke="#ED9E05"/>
    <path d="M26.273 72.32c6.063-.16 13.968 3.369 17.302 9.88" stroke="#ED9E05"/>
    <path d="M75.941 129.52a43.997 43.997 0 0 1-22.918 12.558M18.132 117.045c-5.052-1.053-12.63-4.919-14.726-11.27M6.18 99.375v26.878M78 105.6v19.911M4.406 81.518c2.282-1.188 4.9 1.634 4.522 3.369M51.555 99.367c.842-2.805 3.418-2.881 4.487-1.685M47.055 104.833c.092-2.039 1.827-5.795 5.615-2.889M11.585 76.102c-.143-2.452 1.836-3.96 4.16-2.873M6.688 85.797c2.458.413 3.78 2.257 3.367 5.18M18.672 96.03c2.913-.952 4.092 3.689 3.267 5.365M83.219 91.137v31.746" stroke="#C0C0C2"/>
    <path d="M144.66 74.51c7.518 7.328-2.374 13.999-6.66 15.91M121.391 68.555c7.847-.48 16.325 1.103 23.279 5.896M138.008 90.396c-8.663 3.85-24.837 4.422-36.633-5.845" stroke="#ED9E05"/>
    <path d="M143.524 105.506c-13.665 6.671-37.299 4.144-48.118-4.877M157.355 97.252c-3.165 3.369-7.106 5.163-10.347 6.738M164.399 79.16c2.408 7.27-2.627 14.227-7.047 18.118M123.727 60.83c12.797-.168 30.975 2.224 39.571 15.785M91.71 97.782c-3.064-2.627-6.003-6.005-7.358-10.419M165.932 126.16c-10.726 22.127-46.467 26.591-68.198 14.993M93.555 138.659a23.992 23.992 0 0 1-9.211-10.95" stroke="#C0C0C2"/>
    <path d="M120.75 92.754c1.945-16.737 17.748-20.67 19.407-20.83" stroke="#ED9E05"/>
    <path d="M115.984 74.577c6.062-.16 5.507.75 8.841 7.235" stroke="#ED9E05"/>
    <path d="M158.661 129.42a44.017 44.017 0 0 1-22.927 12.567M100.828 116.953c-5.052-1.052-12.63-4.919-14.734-11.269M88.89 99.281v26.878M161.195 104.277v19.929M120.508 104.749c2.105-4.776 7.67-4.136 9.345-2.881M134.258 99.273c.842-2.805 3.418-2.88 4.487-1.685M129.758 104.748c.101-2.03 1.827-5.786 5.616-2.88M158.465 77.256c-1.835-.303-1.961 4.321-1.027 5.72M101.375 95.938c2.913-.952 4.1 3.69 3.267 5.365M165.93 88.223v34.567M1.016 90.977v33.481" stroke="#C0C0C2"/>
    <path d="M157.769 149.18c-1.532 2.939-1.684 5.82-.32 6.654 1.364.834 4.277-.944 6.188-4.136 1.912-3.192 2.248-6.502.75-7.412-.842-.506-2.097-.143-3.368.842M157.812 165.959c2.4-.219 7.393-1.306 8.108-4.212.758-3.099-3.898-3.521-5.893-3.369M155.194 159.262c-1.288.537-3.863 1.888-4.191 4.069-.187 1.221 1.062 2.62 3.27 2.669M22.64 164.771c1.406-.531 4.723-1.929 4.319-3.967-.438-2.224-4.513-2.123-6.113-2.022-2.744.169-6.171.893-8.301 2.755-1.979 1.684-1.322 3.571 1.271 4.127M6.513 146.375c-1.11.286-1.86.842-1.987 1.524-.252 1.424 2.097 3.024 5.246 3.58 3.149.556 5.893-.151 6.146-1.566.253-1.416-2.096-3.024-5.245-3.58-.27-.051-.54-.084-.8-.118M79.882 143.577c-.843.784-1.247 1.609-1.01 2.292.462 1.364 3.291 1.642 6.314.614 3.022-1.027 5.102-2.964 4.639-4.329-.463-1.364-3.292-1.685-6.315-.615-.26.084-.513.185-.766.287" stroke="#ED9E05"/>
  </symbol>

  <symbol id="soupIcon" viewBox="0 0 167 167" fill="none">
    <path d="M1 83.662c7.103 33.116 21.51 56.191 48.556 72.631 22.682 13.783 47.757 12.218 67.995-.471 30.332-19.013 43.981-56.83 48.447-72.16" stroke="#CA160B"/>
    <path d="M160.564 66.777c18.031 14.077-13.312 25.977-28.369 29.97M57.258 52.928c33.475-3.02 68.828-1.472 98.334 10.654M7.834 85.092C4.683 82.738 2.72 80.51 1.75 78.407c-6.808-14.69 34.544-22.949 49.247-24.782M25.488 93.82a84.474 84.474 0 0 1-12.832-5.617M132.194 96.748c-30.417 8.014-65.913 8.165-96.397.219" stroke="#CA160B"/>
    <path d="M104.158 86.362a4.394 4.394 0 0 1 .733-5.045c3.733-3.667 10.768-1.463 13.186.916" stroke="#C0C0C2"/>
    <path d="M120.956 72.975c5.098 1.471 9.268 3.683 11.619 7.038 3.084 4.465-1.761 9.175-14.062 11.378-6.336 1.135-9.167.74-11.451-1.682M49.43 70.133c12.453.69 23.684 12.614 31.941 11.722 8.569-.925 6.597-12.059 19.337-11.562 5.156.14 10.295.657 15.376 1.547M21 75.338c6.058-2.523 12.689-5.206 21.696-5.887M8.86 82.4a43.679 43.679 0 0 1 6.327-4.271" stroke="#C0C0C2"/>
    <path d="M77.992 95.603c9.117 6.349 12.167-1.95 13.27-7.265 1.905-9.158 8.131-13.564 12.748-13.329M53.523 78.383a30.697 30.697 0 0 1 16.64 9.956 43.078 43.078 0 0 0 3.371 3.364M27.977 88.34c-10.279-7.804 7.457-12.127 19.784-10.933M72.266 71.815c3.985 1.615 6.74 2.952 9.327 1.262 5.055-3.305 9.891-4.852 12.09-4.592M56.547 67.172c5.359-.278 7.187 1.135 10.549 2.304M34.79 92.644c5.054-5.289 10.548-7.786 17.364-5.348 6.816 2.439 8.266 8.3 14.939 9.688" stroke="#C0C0C2"/>
    <path d="M23.195 122.018a71.98 71.98 0 0 0 14.644 17.146M13.5 100.061c1.12 5.121 3.8 11.772 7.634 18.5M135.609 104.493c10.507-2.775 18.714-7.122 22.387-11.302M122.859 106.864a93.52 93.52 0 0 0 8.83-1.438M132.296 135.633c-4.33 5.979-15.654 15.229-27.003 19.425-8.249 3.044-15.916 5.046-24.637 4.037M136.195 130.964c5.308-6.172 7.583-8.83 10.617-14.632" stroke="#CA160B"/>
    <path d="M123.367 68.459c10.414 2.363 22.884 4.928 34.124 10.932M106.375 66.121c6.075.664 11.88 1.514 16.986 2.338M72.266 65.625a165.74 165.74 0 0 1 29.11 0M136.513 76.684c4.811 1.017 13.565 2.203 12.638 6.727-.674 3.263-8.198 4.6-14.643 7.787M69.525 1c-17.323 15.893 3.37 18.92-1.054 27.498-4.423 8.578-2.527 8.83 1.054 15.641M84.165 1c-17.323 15.893 3.37 18.92-1.053 27.498s-2.528 8.83 1.053 15.641M98.439 1.059c-17.323 15.893 3.37 18.92-1.054 27.498-4.423 8.577-2.527 8.83 1.054 15.641" stroke="#C0C0C2"/>
  </symbol>

  <symbol id="uramakiIcon" viewBox="0 0 167 167" fill="none">
    <path d="M43.496 163.496a51.954 51.954 0 0 1-20.55-12.984M113.401 93.404c0 24.847-10.826 56.755-38.232 68.475a45.673 45.673 0 0 1-26.817 2.907M103.312 52.361a89.738 89.738 0 0 1 9.817 34.233M6.281 62.735c5.106-16.009 16.075-31.605 32.941-39.028 23.62-9.639 49.774 4.457 61.037 23.356M17.369 144.101C1.109 121.849-2.66 93.631 4.389 68.684M150.329 143.141c-7.487 11.753-19.12 23.018-34.985 22.858M162.633 101.594c.202 12.402-4.719 27.526-9.328 35.842" stroke="#C0C0C2"/>
    <path d="M80.675 66.998a60.75 60.75 0 0 1-.294 49.5c-5.274 11.341-17.135 23.87-32.764 20.323-9.8-2.224-18.902-12.209-23.344-23.01" stroke="#ED9E05"/>
    <path d="M24.276 113.811a60.42 60.42 0 0 1-.143-44.563c4.862-12.074 17.244-26.962 34.051-23.221 9.253 2.08 15.857 8.173 22.494 20.971" stroke="#ED9E05"/>
    <path d="M35.865 79.35c-1.952-6.867-2.465-13.321-8.084-17.45M46.313 93.84c-4.013-1.634-6.41-4.743-8.118-8.223M85.486 86.596c-10.229 4.516-23.36 10.262-35.22 8.35M74.315 56.61c-12.913 6.808-21.341 13.388-23.713-11.063" stroke="#ED9E05"/>
    <path d="M41.644 123.491a21.21 21.21 0 0 1 2.59-11.703c3.29-6.151 8.79-11.493 17.464-17.054M46.124 136.425a33.39 33.39 0 0 1-3.827-8.956" stroke="#ED9E05" />
    <path d="M20.172 89.527c17.286 4.432 17.396-3.842 23.326 23.777M67.203 107.238c5.165-2.368 11.323-2.663 17.017-2.241M66.145 133.502C60.256 126.761 55.302 115.606 64.2 109" stroke="#ED9E05"/>
    <path d="M95.734 70.873a7.59 7.59 0 0 1 1.59-4.373M102.468 80.528a9.998 9.998 0 0 1-6.234-5.839M92.7 59.887c-5.048-1.23-5.14-5.131-2.97-6.74M102.473 66.644c-3.634-.143-10.33-2.738-5.148-8.425M90.599 132.094c-1.733-7.018 6.73-9.875 9.741-7.878M50.695 159.705c-2.288-4.305 3.138-9.268 6.502-8.535M58.922 155.399c.79-4.643 4.332-7.145 9.96-6.336M26.54 139.542c-5.451.371-8.808-4.524-6.393-10.271M40.759 33.709c-.505 3.438 7.032 3.673 9.312 1.921M10.057 109.101c-3.272-2.688-1.58-5.839.842-6.378M14.424 117.821c-2.717-1.356-6.645-5.712-.059-8.467M109.279 165.965H57.125" stroke="#C0C0C2"/>
    <path d="M67.375 1h44.861" stroke="#ED9E05"/>
    <path d="m123.594 160.614-38.047-.202M113.815 133.434a65.009 65.009 0 0 1-19.44 22.336M119.677 117.105a112.52 112.52 0 0 1-3.693 11.881M112.641 155.012h-10.094M133.031 155.061l-13.039-.067M165.11 150.016c-.53-1.247-1.935-4.163-3.97-3.809-2.23.388-2.129 3.977-2.028 5.393.169 2.409.892 5.426 2.759 7.313 1.733 1.736 3.575 1.163 4.131-1.121M146.688 164.229c.277.977.841 1.685 1.522 1.753 1.43.219 3.028-1.846 3.584-4.626.555-2.78-.143-5.199-1.565-5.418-1.422-.219-2.784 1.542-3.441 3.986" stroke="#C0C0C2"/>
    <path d="M1.266 41.94C6.372 22.022 26.114 9.375 38.186 5.71c25.235-7.743 54.509 0 70.129 23.752M110.719 34.23c8.555 10.583 18.136 36.146 16.369 65.34M166.003 85.618c0-36.76-19.255-75.097-48.167-84.618" stroke="#ED9E05"/>
    <path d="M117.141 95.02c7.31 13.936 17.362 10.313 25.715 9.993 8.353-.32 23.183-5.342 23.141-14.324M1.266 46.625c.84 4.508 2.86 8.485 9.202 5.738" stroke="#ED9E05"/>
    <path d="M85.265 64.217a64.965 64.965 0 0 1-.345 54.825c-6.056 12.563-19.709 26.44-37.702 22.513-11.297-2.468-19.213-11.029-24-19.572M20.343 116.086a64.628 64.628 0 0 1-.16-49.349c5.603-13.371 19.852-29.877 39.191-25.714 10.692 2.3 18.363 10.11 23.175 18.106" stroke="#C0C0C2"/>
    <path d="M100.312 10.184h24.075M135 95.871l20.786-3.092M127.305 52.364l24.68-2.419M135 86.555l20.786-2.924M108.898 19.992h24.134" stroke="#ED9E05"/>
  </symbol>

  <symbol id="drinksIcon" viewBox="0 0 167 167" fill="none">
    <path d="M51.398 26.217a153.344 153.344 0 0 1 44.166-.396M113.929 29.434c4.474 1.305 17.778 5.459 11.585 12.14-3.892 4.213-10.54 6.437-15.882 8.063-18.477 5.61-39.709 5.35-58.683 2.805a82.775 82.775 0 0 1-21.965-6.015M109.398 62.26c6.134-1.526 12.992-3.472 16.944-8.342M64.492 65.83c9.984.329 22.58.261 32.48-1.129M30.992 59.832c10.65 4.07 22.117 5.704 33.466 5.999M126.843 44.633l-.523 9.268M109.842 156.847c-15.241 9.512-36.086 11.652-54.293 6.226a58.57 58.57 0 0 1-14.205-6.454M118.416 110.998c-2.216 15.738-2.696 25.275-4.861 40.862M124.31 61.357c-1.929 15.165-3.235 26.37-5.013 41.57" stroke="#C0C0C2"/>
    <path d="M34.578 94.67c3.505 20.439 5.114 36.935 8.923 57.189M31.04 72.293c1.39 8.476 1.128 6.934 2.45 15.41M82.358 162.044c-9.807.691-16.75.7-26.405-2.612-4.676-1.6-8.51-2.847-12.453-7.582M106.619 153.973c-4.945 4.28-11.795 6.344-18.392 7.347M48.734 149.088c7.667-7.684 46.155-8.257 57.007.556" stroke="#87E80C"/>
    <path d="M65.465 147.006c-6.218.674-25.79 5.274.683 10.169M33.79 42.215a49.703 49.703 0 0 0 7.17 2.527c4.549 1.281 17.87 3.809 27.264 3.657M91.606 29.367c-12.89-1.188-25.672-1.593-38.512.421M92.61 48.433c11.795-.842 24.281-5.72 26.851-8.223 2.57-2.502.75-4.541-1.997-5.628M95.563 82.143c10.177 2.468 20.263-.986 23.262-2.258M105.109 88.436c4.575.471 10.574-.843 12.638-1.88M36.25 69.967a55.472 55.472 0 0 0 17.693 2.3M46.977 130.004c3.673 2.191 9.9 3.025 14.011 2.089" stroke="#87E80C"/>
    <path d="m53.998 90.894-3.834 14.551M64.852 111.992c.935-2.418 4.035-12.183 4.979-14.61M54.008 90.894l15.823 6.488M50.164 105.445l14.652 6.547M64.852 111.984l6.52-4.103M69.836 97.383l6.041-2.79M71.375 107.881l4.5-13.287M60.18 88.426c1.685.505 13.969 5.662 15.688 6.176M54 90.894l6.176-2.468M50.203 105.446l7.06-3.311M58.526 96.8l-1.003 3.27M57.266 102.135l7.59 3.311M78.39 135.986l1.913 3.168M72.375 126.002l4.103 6.816M96.51 134.277c-.556-1.23-6.453-13.346-7.018-14.576M72.375 125.994l17.154-6.303M80.305 139.154l16.202-4.879M96.54 134.277l1.693-7.246M89.531 119.692l2.022-5.856M98.236 127.03l-6.681-13.194M77.578 118.942c2.258-1.011 11.703-4.095 13.961-5.106M72.375 126.002l2.3-4.676M81.43 136.905l1.862-4.837M79.945 126.045l1.669 3.041M87.023 42.948l29.826-33.7M129.227 2.972 165.995 1M158.344 9.08l7.658-.514M131.844 10.857l17.398-1.171M112.972 27.025 97.891 43.54M122.077 17.05l-9.108 9.976M131.841 10.865l-2.612-7.869c-6.563.337-9.9 2.966-12.385 6.269l5.232 7.802c3.075-3.96 5.805-5.527 9.765-6.202ZM119.07 6.771l5.047 7.962M125.305 3.527l3.707 7.878M121.781 4.85l4.55 8.063M166 8.566V1" stroke="#C0C0C2"/>
    <path d="M42.586 17.27a25.191 25.191 0 0 1 10.557 29.925M6.156 23.614c6.462-8.56 17.896-11.99 28.158-9.664M31.733 64.82c-13.463 1.836-27.29-7.06-30.18-20.54a25.586 25.586 0 0 1 .944-13.919M30.469 56.344l1.264 8.476M27.875 38.988l1.104 7.373M45.953 36.056l8.425-1.365M27.875 38.988l11.18-1.82M1.36 43.294l7.203-1.272M23.383 13.738l3.37 20.22M33.315 32.484l-5.4 6.538M20.281 48.88c2.46-3.37 4.954-6.682 7.583-9.892" stroke="#87E80C"/>
    <path d="M12.07 59.95c1.247-1.6 2.472-3.216 3.674-4.845M20.555 33.807l7.321 5.181M6.156 23.613l9.192 6.505" stroke="#87E80C"/>
    <path d="m24.96 64.887 13.49 87.199" stroke="#C0C0C2"/>
    <path d="m117.713 64.559-9.377 82.245" stroke="#87E80C"/>
  </symbol>

  <symbol id="nigiriIcon" viewBox="0 0 167 167" fill="none">
    <path d="M9.97 89.85c-12.107-22.025-12.107-49.147.91-70.616M39.215 124.596c-9.824-9.268-19.378-19.092-26.692-30.526M147.024 160.692c-36.743 16.472-73.933-9.799-101.61-30.922" stroke="#C0C0C2"/>
    <path d="M117.197 161.609a62.352 62.352 0 0 1-20.97-6.302M132.444 160.564a43.657 43.657 0 0 1-9.006 1.247" stroke="#C0C0C2"/>
    <path d="M17.942 47.392C9.618 29.656 8.228 14.675 15.752 6.73 19.963 2.29 26.467.52 34.556 1.11M117.523 103.752c19.379 6.344 35.606 13.068 38.1 22.749M43.219 73.2C59.143 84.32 76.398 90.471 85.85 93.664c8.324 2.806 17.07 5.435 25.453 8.089M17.938 47.393a86.228 86.228 0 0 0 20.22 22.083" stroke="#DB4900"/>
    <path d="M23.43 66.518c9.268 9.622 20.524 17.078 32.412 22.993M13.266 53.51a76.923 76.923 0 0 0 6.622 9.074" stroke="#C0C0C2"/>
    <path d="M44 2.703c26.245 6.884 73.873 38.86 94.406 64.094 13.16 16.169 22.748 34.764 23.523 54.345M40.906 1.994c.994.194 2.022.43 3.092.708M149.908 149.24l-4.213 16.758M155.622 126.484l-3.927 15.629M161.93 121.133l4.069 39.415M158.57 147.262l7.431 13.286M145.695 166l12.874-18.738" stroke="#DB4900"/>
    <path d="M30.79 31.273c7.64-4.128 16.1-5.822 23.708-8.367 5.898-2.527 8.425-8.476 5.013-14.441M17.938 47.392a23.962 23.962 0 0 1 8.846-13.548M68.469 38.014c6.816-4.617 12.208-11.13 9.596-19.8M31.148 63.419c7.019-11.274 21.494-16.135 32.48-22.421M52.54 79.097c11.5-20.027 50.298-26.001 45.319-48.144M95.523 74.211c8.257-6.597 24.67-14.062 23.499-26.818M79.797 91.558a61.005 61.005 0 0 1 11.871-14.095M129.477 81.625c4.886-5.283 6.959-12.023 5.223-19.092M102.117 98.89c7.777-4.213 16.008-7.835 23.01-13.337M123.508 105.773c22.824-5.342 27.93-11.459 22.369-28.925M143.766 114.349c9.537-.455 13.977-1.348 14.702-12.267" stroke="#DB4900"/>
    <path d="M108.602 125.203c3.041-2.03 8.113-.109 7.355 3.126M48.344 105.26c3.42 1.458 9.512-.531 8.24-3.496M5.023 43.887a2.359 2.359 0 0 1 4.5.843M137.372 120.458c1.382-.21 1.567 1.584.523 3.37-1.129 1.938-3.581 3.371-4.365 2.991-.783-.379-.766-1.314-.295-2.342M19.3 76.384c.21 1.381-1.576 1.567-3.371.522-1.938-1.129-3.37-3.59-2.983-4.373.388-.783 1.306-.775 2.334-.303M129.435 151.086c-1.34-.564-.649-2.115 1.154-3.016 1.938-.969 4.811-.843 5.333-.093.522.75.059 1.475-.842 2.056M91.641 141.886c-5.476 1.853-9.403-2.427-10.211-4.929M93.61 146.671a3.974 3.974 0 0 1-3.54.043 3.982 3.982 0 0 1-2.172-2.798M102.037 146.443c-1.525 1.517-5.897 2.898-7.709-2.814M76.14 108.377c5.856-1.18 8.24 4.574 6.572 6.656M35.219 92.63c2.746-2.705 7.684-.969 9.183 1.196M24.39 95.864c1.054-2.309 5.898-5.468 11.796.556M70.745 123.677c-1.491 2.578-5.78 1.685-6.487-.177M65.87 127.124c-3.37 1.55-6.395.539-8.097-3.151" stroke="#C0C0C2"/>
    <path d="M9.171 112.463c-1.112.286-1.862.842-1.988 1.525-.253 1.424 2.098 3.024 5.249 3.581 3.15.556 5.897-.144 6.15-1.568.253-1.423-2.098-3.024-5.249-3.58-.27-.051-.539-.085-.842-.118M26.938 128.378c1.854-2.527 2.207-5.358.8-6.403-1.407-1.045-4.052.118-5.897 2.612-1.845 2.494-2.2 5.35-.792 6.395.792.59 1.98.48 3.184-.177" stroke="#DB4900"/>
    <path d="M90.39 33.32c15.646 10.591 31.073 22.564 43.391 37.006a130.972 130.972 0 0 1 10.633 14.323M68.54 19.916c6.015 3.286 11.887 6.841 17.633 10.59" stroke="#C0C0C2"/>
  </symbol>

  <symbol id="lunchIcon" viewBox="0 0 167 167" fill="none">
    <path d="M43.242 35.95c.143 12.579.143 25.217 0 38.185M43.242 1c.143 8.771.143 16.354 0 24.561M18.594 99.844c7.895-8.873 16.97-16.633 24.654-25.707M1 118.556l12.234-12.867M29.906 97.684l12.235-12.866M7.25 129.939l9.479 17.265M1 118.557l3.27 5.957M119.641 159.641l.682 6.361M117.367 138.508l1.466 13.599M110.797 147.111l1.466 13.608M51.977 153.6c22.589 3.623 45.339 8.678 68.349 12.402M16.727 147.203c9.807 1.593 19.076 4.12 29.026 5.266M120.32 166.002l34.967-44.008M124.961 152.823l25.614-32.245M155.289 121.993l4.887-34.04M152.383 117.352l2.646-18.41M162.508 57.546l3.244-42.07.244-3.21M160.172 87.953c.337-8.249 1.179-15.832 1.845-23.912M80.577 4.43C67.82 3.03 56.024 2.187 43.242 1M142.406 10.166c-18.402-1.541-36.821-2.982-55.164-5.13M165.998 12.266c-5.577-.54-18.014-1.618-23.592-2.098M63.686 30.643c-.084 6.42-.151 12.832-.303 19.244M67.827 24.271c-.084 6.412-.152 12.825-.304 19.236M47.6 23.867c-.084 6.412 0 23.854 0 30.535M63.868 19.654l-.118 6.379M142.055 40.458l.96-13.136M140.328 64.285l.969-13.388M143.016 27.323l22.985-15.057M48.913 6.131 43.243 1M63.875 19.654l-9.656-8.738M45.18 79.934l5.527 16.455M134.688 84.77c8.501.977 17.003 2.013 25.479 3.184" stroke="#C0C0C2"/>
    <path d="M43.242 74.137c18.773 2.527 65.182 7.684 84.005 9.79M52.531 79.79c18.958 2.35 49.055 5.737 67.272 7.776" stroke="#C0C0C2"/>
    <path d="M128.75 114.959c1.483-1.686 2.932-3.682 3.37-5.898M95.328 127.235c2.393 3.893 9.673 1.77 12.984.716a49.695 49.695 0 0 0 18.031-10.549M100.319 115.043a1.945 1.945 0 0 0-1.685 2.823 1.959 1.959 0 0 0-1.404.884 1.978 1.978 0 0 0-.231 1.643M130.951 107.46a1.724 1.724 0 0 0 .11-2.123 1.425 1.425 0 0 0-1.534-.531 1.602 1.602 0 0 0-.573-1.221 1.534 1.534 0 0 0-2.157.092 1.461 1.461 0 0 0-.295 1.273" stroke="#F2E60C"/>
    <path d="M127.314 103.297c-.11-1.491-2.612-1.845-3.429-.64a1.909 1.909 0 0 0-1.205-.439M107.786 109.675c-1.062-.615-2.839.261-2.646 1.576-1.761 0-2.839 2.342-1.247 3.421" stroke="#F2E60C"/>
    <path d="M122.684 102.219a1.917 1.917 0 0 0-1.601.842 1.988 1.988 0 0 0-.725-.337c-.573-.118-2.123.354-2.241 1.02M98.153 120.705c-2.241-1.213-3.842 1.744-1.896 3.202M96.296 123.906c-1.061.784-1.12 1.812-.969 3.328M114.681 105.892a1.786 1.786 0 0 0-1.82 1.483 1.917 1.917 0 0 0-1.839-.129 1.914 1.914 0 0 0-1.093 1.485 1.903 1.903 0 0 0-2.166.944 1.89 1.89 0 0 0 .177 2.03M128.1 110.611a2.096 2.096 0 0 0-.539.548 2.233 2.233 0 0 0-.185.404 2.041 2.041 0 0 0-2.419.548 1.868 1.868 0 0 0-.311 1.542M120.23 118.228a1.88 1.88 0 0 0-2.143-.426c-.358.16-.657.427-.855.765a1.88 1.88 0 0 0-.254 1.119c-1.424-.304-2.831 1.407-2.022 2.704M113.483 110.965a2.663 2.663 0 0 0-2.881 2.107M103.508 120.073a1.92 1.92 0 0 1 3.067-1.98 1.916 1.916 0 0 1 1.087-1.247M117.344 112.169a1.969 1.969 0 0 1 2.047-.952c.127-1.373 1.736-1.887 2.865-1.373M97.844 126.275a1.985 1.985 0 0 1 2.047-.944c.127-1.382 1.736-1.896 2.873-1.382M109.349 124.849a1.888 1.888 0 0 0-1.685-3.041M132.104 109.027c-.278-1.062-.843-1.635-1.534-1.627M95.328 127.234l1.112 7.685M132.109 109.027l1.509 10.297M113.156 129.013a41.946 41.946 0 0 0 12.209-6.884M52.438 114.309c5.257-3.429 13.439-9.311 14.24-16.186M31.234 118.809c3.573 5.005 14.248-.497 17.939-2.528M57.445 128.018a54.12 54.12 0 0 0 4.988-4.112M44.234 121.784a41.907 41.907 0 0 0 12.21-6.884M66.688 98.123l1.095 5.056M31.266 119.096l1.036 4.76" stroke="#F2E60C"/>
    <path d="M31.232 118.809c-1.474-2.654-1.306-5.494 1.845-6.438 3.151-.943-.143-2.738 2.073-5.611 2.368-3.059 5.898-.093 5.788-1.508-.505-6.58 7.508-3.649 7.87-4.693 1.112-3.22 4.213-4.424 8.88-3.48 1.366.278 4.812-5.898 8.991 1.045" stroke="#F2E60C"/>
    <path d="M35.322 117.916c-.632-2.191 1.559-3.514 3.37-3.505 2.368 0 .843-2.368 2.292-4.323 1.45-1.955 4.449-.522 4.55-1.382.581-5.055 5.401-2.881 5.629-3.547.69-2.064 2.266-3.648 5.577-3.48.986.051 1.77-4.07 6.345-1.457M63.781 114.891a11.973 11.973 0 0 1 4.399-9.268" stroke="#F2E60C"/>
    <path d="M83.547 128.38c-6.26.674-14.526-.505-18.25-7.28a11.792 11.792 0 0 1-1.516-6.209M92.352 125.566a21.514 21.514 0 0 1-8.805 2.815M89.133 100.762a15.794 15.794 0 0 1 10.01 7.296 10.871 10.871 0 0 1 1.188 3.691M84.906 100.205c1.418.068 2.827.254 4.213.556M68.172 105.665a21.905 21.905 0 0 1 12.757-5.351M90.652 119.408c-3.75 2.864-10.052 3.631-14.324 2.114-3.176-1.112-6.867-4.002-6.378-8.375a9.092 9.092 0 0 1 4.087-6.209" stroke="#F2E60C"/>
    <path d="M90.65 119.406a8.848 8.848 0 0 0 3.766-5.974c.505-4.701-3.826-7.659-7.188-8.645A16.727 16.727 0 0 0 74 106.936M65.157 129.367l-1.196-11.939" stroke="#F2E60C"/>
    <path d="M70.836 117.352c.725-4.213 3.707-6.622 8.965-4.802 5.258 1.82 8.493 7.178 14.324 2.308" stroke="#F2E60C"/>
    <path d="M80.242 104.51c4.626 3.606 9.943 5.839 4.584 10.692M72.188 108.512c5.055-1.281 9.622-1.45 7.583 4.036" stroke="#F2E60C"/>
    <path d="m160.171 87.954-16.093-18.132M131.765 64.556c-21.949-2.317-43.907-4.592-65.788-7.474M43.242 74.135l18.031-15.68M113.445 24.406c9.867.885 19.683 2.292 29.575 2.916M63.875 19.654c14.063 1.07 29.229 2.756 43.233 4.213M1 118.557l27.291 4.684M116.183 157.618l-55.324-9.782M72.29 24.744l29.068 3.033M84.805 132.846c10.844 1.929 21.696 3.85 32.565 5.662M160.178 87.953l-42.803 50.555M28.281 123.24c16.01 2.444 32.018 5.249 47.985 8.089" stroke="#C0C0C2"/>
  </symbol>

  <symbol id="coldStartersIcon" viewBox="0 0 167 167" fill="none">
    <path d="M159.896 42.365c-.059-8.087-.118-15.366-.185-21.314M159.969 145.906c.236-21.34.177-59.243 0-90.398M122.934 22.922c0-2.146-.02-4.294-.059-6.445M49.586 159.471c30.685 0 66.669-.11 91.406-.219M19.273 159.412c6.867 0 14.593.042 22.841.051M1.008 61.145v91.569M1.008 13.797v37.886M49.59 1H16.344M107.489 29.965H74.234M150.601 1H60.156M119.966 12.938a5685.198 5685.198 0 0 0-71.935 0M1 13.798C1 7.108 6.56 1 16.342 1" stroke="#ED9E05"/>
    <path d="M5.875 17.682c0-6.74 2.73-11.737 12.512-11.737M150.602 1c8.913 0 15.392 5.055 15.392 12.798M1 152.713c0 11.121 6.083 13.522 15.342 13.27M150.602 165.958c11.795 0 15.46-6.563 15.392-13.144" stroke="#ED9E05"/>
    <path d="M86.344 53.46c28.005 7.752 22.226 19.563 37.838 19.723 16.901.186 24.197-3.95 29.185-5.055M12.773 80.917c8.544-10.068 29.009-36.842 65.852-29.293M52.813 101.524a76.118 76.118 0 0 0 26.539-1.559c29.547-6.832 42.362-16.007 45.564-15.46 3.201.548 22.428 5.898 25.983 7.583M12.773 86.31c9.706 5.51 21.055 11.745 34.982 14.424M24.719 87.775c4.541 2.924 8.838 5.494 15.595 6.74" stroke="#C0C0C2"/>
    <path d="M153.214 68.23c5.013 4.28-5.004 8.956-4.642 12.006.362 3.05 5.156 6.116 3.733 8.989l-1.424 2.873M74.438 77.808c7.186-.766 14.02-.766 14.862 1.13 1.6 3.597-12.815 7.91-17.087 8.804-4.271.893-6.74.185-9.377.185M58.266 80.918a66.738 66.738 0 0 1 11.601-2.527M38.04 61.145c3.875 0 6.209 1.853 5.147 4.465-1.062 2.611 6.066 3.985 1.399 9.326-2.882 3.302 3.605 6.858 0 9.554-3.413 2.527 5.055 8.643-4.272 9.991M12.773 80.908l5.923 4.676M12.773 86.3l5.923-.716M132.82 76.403l20.288-2.317M133.453 80.117l15.166.37M132.875 82.889l19.563 4.297M125.461 88.77l15.991 4.751M27.995 76.974c1.624 0 2.94-1.327 2.94-2.965s-1.316-2.966-2.94-2.966c-1.624 0-2.94 1.328-2.94 2.966 0 1.638 1.316 2.965 2.94 2.965ZM131.335 72.99c2.14 4.103 3.732 9.142-.843 12.89M40.438 125.604h106.958M13.984 125.604h19.05M65.805 140.607c19.378-.076 22.234 1.559 24.795-6.226M13.984 125.604c16.85 13.37 33.28 15.307 47.232 15.055M90.602 134.381h57.46M104.578 138.467H138.7M147.398 125.604c4.213 1.853 4.12 6.74.658 8.779" stroke="#C0C0C2"/>
    <path d="M100.828 25.482c6.033 0 12.062.026 18.089.076M47.548 12.938a2.317 2.317 0 0 0-1.861 2.527c0 2.477-.051 4.954 0 7.423 0 2.266.791 2.847 4.617 2.805 14.805-.168 29.611-.244 44.418-.227M119.961 12.938c2.704 0 2.966 1.364 2.907 3.538" stroke="#ED9E05"/>
    <path d="M118.891 25.559c3.05 0 3.985-.396 4.044-2.637" stroke="#ED9E05"/>
    <path d="M78.203 95.19c7.583 0 29.126-6.589 36.094-11.366" stroke="#C0C0C2"/>
    <path d="M125.43 165.982h25.166M16.344 165.982h99.991M166 94.616v-80.82M166 152.831v-47.87" stroke="#ED9E05"/>
    <path d="M79.008 88.585a22.858 22.858 0 0 0 9.9-4.415" stroke="#C0C0C2"/>
  </symbol>

  <symbol id="hosomakiIcon" viewBox="0 0 167 167" fill="none">
    <path d="M3.344 44.746c2.83-8.595 8.425-16.01 15.233-21.908M83.374 112.915c-28.192 0-64.404-10.786-77.7-38.079-3.749-7.684-5.3-15.9-3.808-24.25M129.948 102.863a112.993 112.993 0 0 1-42.354 9.968M121.414 7.217c17.019 5.435 33.129 16.01 41.04 31.834 10.954 23.517-5.055 49.563-26.498 60.77M25.852 17.286C52.172.434 85.849-2.937 115.01 5.312M26.792 152.35C13.446 144.893.816 132.296 1.01 116.488M165.866 116.488c0 17.594-14.879 30.579-29.413 37.918-20.693 10.44-45.211 13.271-68.061 10.71a113.419 113.419 0 0 1-36.314-10.002" stroke="#C0C0C2"/>
    <path d="M113.722 81.258c-18.536 7.272-40.906 7.213-59.358-.312-13.607-5.544-28.646-18.032-24.374-34.471 2.662-10.323 11.93-17.57 21.164-21.909M57.586 21.903c17.01-5.899 36.406-6.168 53.426-.152 14.483 5.115 32.362 18.15 27.854 35.837-2.485 9.774-10.953 16.785-19.614 21.183" stroke="#87E80C"/>
    <path d="M108.945 95.32a9.323 9.323 0 0 1 4.954 1.576M97.984 102.028a10.673 10.673 0 0 1 6.623-6.21M121.414 92.296c1.382-4.988 5.822-5.123 7.642-2.966M113.734 102.028c.16-3.615 3.109-10.288 9.572-5.132M39.5 90.173c7.97-1.685 11.206 6.674 8.94 9.707M8.14 50.468c4.887-2.275 10.49 3.134 9.69 6.48M13.031 58.666c5.266.784 8.106 4.306 7.196 9.91M151.116 40.576c-3.901-.497-4.171 7.01-2.183 9.27M104.609 11.96a4.344 4.344 0 0 1 3.928-.936 4.336 4.336 0 0 1 2.998 2.705M112.273 15.802c1.753-2.579 6.994-6.084 9.589.699M1 109.797l.463-49.479M165.875 112.569V70.623M7.11 123.06l.227-37.884M159.625 98.312l.059-9.648M159.516 117.431l.084-15.04M159.456 126.549a62.403 62.403 0 0 1-23.347 21.546M37.96 113.32a71.764 71.764 0 0 1-25.335-19.38M56.48 119.158A147.479 147.479 0 0 1 43 115.484M13.516 114.802l.075-12.411M13.406 132.464l.084-12.993M133.841 140.729a74.561 74.561 0 0 1-15.318 7.144M154.901 119.908c-2.789 7.862-10.549 13.87-17.213 18.369M157.477 147.589c-1.685 2.949-1.053 4.533.396 5.401 1.449.868 4.272-.944 6.193-4.129 1.921-3.185 2.241-6.488.741-7.39-.842-.505-2.098-.143-3.37.843M157.688 165.704c2.401-.219 7.389-1.297 8.105-4.212.758-3.092-3.893-3.505-5.898-3.37M156.012 158.846c-1.685.556-4.979 1.997-4.819 4.212.16 2.216 4.811 2.595 6.496 2.621M14.932 161.019c1.416-.522 4.727-1.921 4.323-3.951-.438-2.216-4.516-2.115-6.117-2.014-2.738.168-6.16.893-8.3 2.747-1.97 1.685-1.322 3.564 1.273 4.111" stroke="#C0C0C2"/>
    <path d="M87.593 43.103c10.389 0 13.759 6.623 8.544 10.34-5.216 3.715-9.352 2.114-14.66 0" stroke="#87E80C"/>
    <path d="M86.565 64.33c-11.855.842-16.329-3.81-15.082-10.887 1.07-6.067 4.314-8.848 9.832-9.859" stroke="#87E80C"/>
    <path d="M58.828 45.202c3.859-6.809 11.012-8.907 21.645-11.41 17.28-4.07 22.252 5.115 27.046 12.64 5.232 8.165.514 14.417-15.419 17.232" stroke="#87E80C"/>
    <path d="M125.826 46.98c3.219 14.965-9.748 20.476-20.086 23.594-9.967 3.033-14.508 1.997-28.562 2.3-12.402.27-22.496-5.055-21.519-16.01.118-1.247.261-2.41.447-3.513M87.594 25.35c13.48 0 27.433 4.019 34.266 12.892M33.14 64.675c1.332-30.882 29.726-35.794 42.785-38.255a64.451 64.451 0 0 1 5.56-.783" stroke="#87E80C"/>
  </symbol>

  <symbol id="sashimiIcon" viewBox="0 0 167 167" fill="none">
    <path d="M144.406 86.75c6.378 5.359 12.638 10.894 18.915 16.329M116.852 63.1l6.243 5.409M95.79 43.95a474.88 474.88 0 0 1 9.848 9.158M72.727 24.344a799.251 799.251 0 0 1 9.58 7.86M49.242 5.176c4.6 3.91 9.268 7.717 13.986 11.5M104.312 149.504c5.646 4.769 10.852 10.026 16.422 14.879M77.094 125.861l12.293 10.76M59.773 110.754a1028.28 1028.28 0 0 0 5.949 5.182M52.227 104.107a1113.26 1113.26 0 0 0 5.055 4.449M28.688 83.22C33 87.04 37.312 90.866 41.62 94.697M4.414 62.072c4.381 3.741 8.743 7.507 13.085 11.299M154.57 127.756c-8.105 11.619-16.531 23.018-24.265 34.89M163.502 114.496a494.109 494.109 0 0 1-4.322 6.521M108.906 124.059a1639.38 1639.38 0 0 0-6.547 9.099M130.93 93.246c-5.898 8.796-12.133 17.34-18.368 25.892M16.938 31.69c6.647-8.797 13.32-17.56 19.622-26.633M3.781 49.467a583.795 583.795 0 0 1 7.17-9.807M98.07 78.99a2033.857 2033.857 0 0 0-21.25 32.691M105.653 67.725l-3.505 5.232M83.435 47.092c-7.7 11.18-15.494 22.294-23.27 33.415M52.567 39.66c-8.425 11.03-17.045 21.906-25.192 33.12M62.489 26.33a498.29 498.29 0 0 1-5.426 7.38M163.359 103.078c2.949 3.143 4.002 6.378.144 11.45M120.734 164.382c3.649 2.865 7.246 1.685 9.572-1.736" stroke="#CA160B"/>
    <path d="M130.938 93.246c3.176-5.055 8.374-10.026 13.548-6.496M102.363 133.158c-3.48 6.311-3.631 10.557 1.947 16.346" stroke="#CA160B"/>
    <path d="M129.828 74.281c4.213 3.075 7.431 8.308 7.153 12.47M89.39 136.621c3.261 2.907 8.123 4.213 10.583 3.101M76.851 111.68c-2.384 4.255-6.108 7.583.253 14.18M105.656 67.725c3.809-6.184 7.297-8.13 11.231-4.617" stroke="#CA160B"/>
    <path d="M105.656 53.107c3.531 3.135 5.805 4.331 5.603 8.653M83.438 47.091c4.01-5.24 10.447-5.434 12.351-3.151" stroke="#CA160B"/>
    <path d="M82.305 32.17c3.774 3.025 5.729 7.794 4.701 11.796M62.484 26.33c3.244-4.212 7.996-3.884 10.237-2.022" stroke="#CA160B"/>
    <path d="M63.234 16.676a8.012 8.012 0 0 1 2.528 6.993M36.563 5.057c3.816-5.123 5.51-5.73 12.713.118M3.782 49.467c-2.94 4.49-4.634 7.692.632 12.638M27.37 72.781c-3.37 5.224-2.317 7.196 1.315 10.44" stroke="#CA160B"/>
    <path d="M17.5 73.371c2.258 1.896 6.614 4.01 8.173 2.705M51.733 92.59c-2.79 3.892-4.693 6.378.463 11.551" stroke="#CA160B"/>
    <path d="M41.625 94.695c3.311 2.528 5.965 2.907 7.583 2.317M65.727 115.936c3.538 2.325 4.751 2.839 8.265.893M107.609 152.409c4.912-7.187 26.684-8.821 30.661-1.542M128.273 135.711a33.565 33.565 0 0 1 14.576 8.619M100.281 143.242c4.702-5.19 12.596-8.846 21.283-8.552M105.812 128.356c12.217-1.559 33.702-9.588 44.605 5.308M116.656 113.459c14.239 1.626 33.281-2.772 38.707 7.583M126.664 99.44c18.418 3.37 29.708-1.121 36.836 15.089M74.828 115.051c16.337 2.738 25.883 0 29.784 14.972M78.79 108.597c15.367-2.435 25.84-.337 30.735 9.167M86.883 96.05c13.548 2.225 26.708.405 32.598 13.482M109.594 87.07c8.821 2.115 14.323 5.898 15.385 14.787M94.313 84.71c4.12.481 7.911.945 11.306 1.543M106.555 74.71c7.321.498 21.552 2.15 25.074 17.425M52.906 94.822c11.627 1.155 23.592 0 24.695 15.663M63.438 84.712c10.11-.615 19.715 1.685 21.99 13.582M66.453 71.525c12.133 1.837 24.434.582 26.304 15.545M73.578 61.322c10.76 2.528 23.465-.219 24.518 12.959M99.14 57.438a17.39 17.39 0 0 1 7.061 9.369M80.719 51.025c2.78 1.365 7.793 1.896 12.739 3.64M30.375 68.695c9.597 7.785 25.605 3.143 23.44 19.379M55.586 67.717c3.817 2.14 6.462 5.173 6.336 10.287M36.563 60.504c4.322 2.25 10.11 3.488 15.022 5.375M43.305 51.7c10.86 3.37 19.934 1.406 25.444 16.555M50.344 42.559c9.47 3.833 19.521 1.39 25.942 14.879M58.977 31.135c6.277 9.386 23.734.573 25.116 15.166M61.064 14.93c-5.056 6.572-19.042 10.836-28.26-4.575M35.551 30.021a29.699 29.699 0 0 1-9.942-9.85M60.662 28.852C54.84 32.087 47.4 34.185 40.07 31.977M48.041 45.55c-10.38.193-20.086-3.042-27.197-19.017M40.16 55.77c-11.645-3.184-21.806-5.805-24.957-16.682M32.805 65.426c-14.896-5.4-22.95-2.258-26.75-19.117" stroke="#CA160B"/>
    <path d="M143.661 46.905c-1.938-8.3.455-19.075 4.482-24.038M145.125 22.118c1.685-1.399 4.617-3.665 5.055-4.01" stroke="#C0C0C2"/>
    <path d="M142.279 43.781c-4.087-2.267-6.581-8.147-1.837-16.312a23.805 23.805 0 0 1 4.685-5.35M153.542 35.455c1.23-4.962-.337-12.233-3.37-17.348M143.664 46.907c5.274-3.471 8.678-8.13 9.892-11.45M136.828 39.374a9.343 9.343 0 0 1-5.173.438 13.289 13.289 0 0 1-4.407-2.055 35.71 35.71 0 0 1-7.49-8.198" stroke="#C0C0C2"/>
    <path d="M138.385 32.188a12.635 12.635 0 0 0-10.186-4.76c-2.014 0-4.39 1.103-8.426 2.131M122.391 30.898c5.855-.447 11.922 1.213 15.46 4.684M143.047 38.456c1.449-2.14 4.853-4.929 7.381-5.544M25.328 123.611 72.73 166M1 101.857l17.222 15.402M9.61 121.059l41.006 37.586M21.035 15.834 3.047 39.088M72.727 129.23l36.187 32.278M165.487 123.68l-16.682 24.097" stroke="#C0C0C2"/>
  </symbol>
</svg>












